<svg xmlns="http://www.w3.org/2000/svg" width="61.365" height="110.539" viewBox="0 0 61.365 110.539">
  <path id="chiffon-dress" d="M149.554,36.1c-.84-6.534-1.708-13.29-1.888-18.416-.414-11.817-8.693-13.841-9.046-13.921-.013,0-4.892-.6-6.755-3.022a1.33,1.33,0,0,0-1.429-.725,1.293,1.293,0,0,0-.6.267c-.578.244-3.158,1.153-9.391,1.153-6.214,0-8.8-.907-9.4-1.161a1.29,1.29,0,0,0-.593-.259,1.329,1.329,0,0,0-1.429.725c-2.01,2.495-6.742,3.019-6.756,3.022-.352.081-8.632,2.1-9.046,13.921-.179,5.126-1.048,11.882-1.887,18.416C89.967,46.7,89.224,53,90.212,55.325l.631,4.791A1.369,1.369,0,0,0,92.058,61.3s5.7.595,5.75.595a1.369,1.369,0,0,0,1.279-.881l1.814-4.752a52.123,52.123,0,0,0,4.131-13.11,5.442,5.442,0,0,0,1.463,1.9c-2.561,4.824-10.058,22.052-10.058,58.364a1.368,1.368,0,0,0,.169.658c.363.662,4.113,6.465,23.835,6.465s23.472-5.8,23.835-6.465a1.371,1.371,0,0,0,.168-.658c0-36.311-7.5-53.539-10.057-58.364a5.443,5.443,0,0,0,1.462-1.9,52.144,52.144,0,0,0,4.131,13.108l1.815,4.753a1.369,1.369,0,0,0,1.279.881c.047,0,5.75-.595,5.75-.595a1.37,1.37,0,0,0,1.215-1.183l.631-4.791C151.658,53,150.916,46.7,149.554,36.1ZM131.3,3.961c.2.146.425.294.669.443a7.636,7.636,0,0,0,1.052,3.847c.468.982,1,2.1.7,2.6-.138.237-.58.267-1.587.244-1.419-.03-3.8-.083-4.834,2.56-.806,2.119.057,3.8.751,5.155.628,1.224.965,1.959.6,2.853-.319.806-.9,1.113-1.978,1.627a6.183,6.183,0,0,0-3.918,4.251,5.915,5.915,0,0,0,.886,5.034,3.065,3.065,0,0,1,.566,2.866,7.043,7.043,0,0,1-2.027,3.088c-.121.127-.243.256-.365.388V23.739c.887-1.677,4.84-9.481,5.217-16.042A8.334,8.334,0,0,0,131.3,3.961ZM123.9,51.637a4.625,4.625,0,0,1-1.759-2.676,4.627,4.627,0,0,1-.11-3.2,4.627,4.627,0,0,1,1.759,2.676A4.628,4.628,0,0,1,123.9,51.637Zm-5.165-2.676a4.627,4.627,0,0,1-1.759,2.676,4.627,4.627,0,0,1,.11-3.2,4.636,4.636,0,0,1,1.758-2.678A4.618,4.618,0,0,1,118.739,48.961Zm1.7-44.783a40.956,40.956,0,0,0,7.844-.63,6.272,6.272,0,0,1-2.927,1.838,1.37,1.37,0,0,0-1.04,1.329c0,4.6-2.375,10.4-3.877,13.61-1.5-3.206-3.876-9-3.876-13.61a1.37,1.37,0,0,0-1.04-1.329A6.3,6.3,0,0,1,112.6,3.549,41,41,0,0,0,120.442,4.178ZM107.866,8.251A7.641,7.641,0,0,0,108.919,4.4q.365-.223.669-.443A8.334,8.334,0,0,0,113.855,7.7c.377,6.561,4.33,14.364,5.217,16.042V38.916c-.123-.131-.245-.261-.366-.388a7.043,7.043,0,0,1-2.027-3.089,3.065,3.065,0,0,1,.566-2.865,5.917,5.917,0,0,0,.885-5.039,6.182,6.182,0,0,0-3.917-4.247c-1.08-.514-1.659-.82-1.982-1.637-.357-.885-.02-1.62.608-2.844.694-1.353,1.557-3.036.746-5.168-1.031-2.631-3.408-2.577-4.829-2.547-1.006.022-1.449-.007-1.6-.263C106.868,10.347,107.4,9.234,107.866,8.251ZM96.9,59.054l-3.486-.365-.293-2.226,4.6.436Zm1.915-4.8-6.261-.594c-.394-2.553.682-10.932,1.488-17.2.848-6.6,1.724-13.417,1.908-18.669.221-6.3,3-9.181,4.968-10.443-.319,3.454-.558,9.862,1.285,14.817a69.406,69.406,0,0,1,1.131,9.886A56.962,56.962,0,0,1,98.818,54.25Zm7.29-20.5a58.986,58.986,0,0,0-1.3-12.458c-1.947-5.123-1.324-12.421-1.017-15.016a19.372,19.372,0,0,0,2.2-.565c-.156.428-.38.9-.6,1.361-.727,1.526-1.631,3.426-.592,5.151.972,1.673,2.731,1.634,4.015,1.607,1.6-.035,1.936.086,2.214.8.355.934.011,1.685-.628,2.932-.692,1.35-1.554,3.031-.713,5.11a5.755,5.755,0,0,0,3.348,3.093c1.19.566,2.049.976,2.445,2.471a3.232,3.232,0,0,1-.591,2.942,5.765,5.765,0,0,0-.852,4.994,9.591,9.591,0,0,0,2.681,4.246A8.8,8.8,0,0,1,118.627,43H108.471C107.3,43,106.16,38.33,106.109,33.751Zm35.6,69.2c-.912.994-5.473,4.847-21.264,4.847s-20.351-3.853-21.264-4.847c.068-37.085,8.248-53.92,10.077-57.219h6.037a9.835,9.835,0,0,0-.812,1.87,8.677,8.677,0,0,0-.387,3.849,3.261,3.261,0,0,0,2.046,2.827,2.529,2.529,0,0,0,.768.119h0a3.062,3.062,0,0,0,1.581-.479V80.967a1.37,1.37,0,0,0,2.739,0V56.855l2.287,10.465a1.37,1.37,0,1,0,2.676-.585l-2.707-12.386a2.666,2.666,0,0,0,.5.052,2.526,2.526,0,0,0,.768-.119,3.261,3.261,0,0,0,2.046-2.827,8.677,8.677,0,0,0-.387-3.849,9.806,9.806,0,0,0-.81-1.87h6.034C133.458,49.036,141.637,65.872,141.706,102.954Zm-5.631-81.66a75,75,0,0,0-1.3,12.458c-.037,4.579-1.192,9.245-2.362,9.245H122.257a8.8,8.8,0,0,1,1.905-2.582,9.59,9.59,0,0,0,2.681-4.245,5.765,5.765,0,0,0-.851-5,3.229,3.229,0,0,1-.592-2.938c.4-1.5,1.257-1.908,2.446-2.475a5.749,5.749,0,0,0,3.344-3.083c.845-2.089-.017-3.77-.709-5.12-.639-1.247-.983-2-.633-2.918.283-.723.613-.844,2.219-.808,1.285.028,3.043.066,4-1.588,1.051-1.744.146-3.643-.58-5.17-.221-.463-.445-.933-.6-1.361a19.447,19.447,0,0,0,2.2.565C137.4,8.87,138.026,16.16,136.075,21.294Zm11.39,37.395-3.486.365-.823-2.155,4.6-.436Zm.861-5.032-6.262.594a56.759,56.759,0,0,1-4.518-22.193,69.585,69.585,0,0,1,1.131-9.9c1.841-4.949,1.6-11.348,1.286-14.8,1.968,1.27,4.746,4.161,4.966,10.431.184,5.253,1.06,12.074,1.908,18.669C147.643,42.726,148.72,51.108,148.326,53.657Z" transform="translate(-89.759 -0.001)" fill="#fff"/>
</svg>
