<svg xmlns="http://www.w3.org/2000/svg" width="82.384" height="110.539" viewBox="0 0 82.384 110.539">
  <path id="dress_2_" data-name="dress (2)" d="M93.828,50.2V42.749a52.29,52.29,0,0,0,2.7-18.833c-.215-5.938,2.8-17.92,2.828-18.041l.592-2.341L86.831,0l-.453,2.207c-.022.105-2.263,10.512-11.532,12.435l-1.283.266-.286,1.49c-.654,3.411-1.186,5.7-1.6,7.239-.411-1.534-.944-3.827-1.6-7.239l-.286-1.49-1.283-.266c-9.2-1.909-11.443-12.014-11.533-12.435L56.528,0,43.411,3.535,44,5.876c.031.12,3.044,12.095,2.828,18.04a52.289,52.289,0,0,0,2.7,18.833V50.16L30.481,100.514l1.11,1.111c.364.364,9.264,8.915,40.081,8.915s39.72-8.551,40.083-8.915l1.11-1.111ZM53.446,48.352V45.1H89.915v3.255ZM53.8,5.443a25.983,25.983,0,0,0,2.237,4.864,18.16,18.16,0,0,0,10.512,8.532c.534,2.671,1.04,4.876,1.509,6.567.751,2.708,1.65,5.352,3.626,5.352s2.875-2.644,3.626-5.352c.469-1.691.975-3.9,1.509-6.567a18.159,18.159,0,0,0,10.512-8.532,26,26,0,0,0,2.237-4.864L95.044,6.92c-.916,4-2.607,12.171-2.426,17.19a47.922,47.922,0,0,1-2.243,16.4H52.981a47.618,47.618,0,0,1-2.239-16.4c.182-5.019-1.509-13.186-2.426-17.191Zm47.675,96.584c-9.466,3.243-21.429,3.924-29.8,3.924s-20.331-.681-29.8-3.924a30.189,30.189,0,0,1-6.544-3.016L52.762,52.939h7.26L56.18,72.933,60,73.941l4.036-21h15.11l4.036,21L87,72.933,83.156,52.939h7.427l17.432,46.072A30.207,30.207,0,0,1,101.47,102.028Z" transform="translate(-30.481)" fill="#fff"/>
</svg>
