<svg xmlns="http://www.w3.org/2000/svg" width="66.231" height="110.539" viewBox="0 0 66.231 110.539">
  <g id="dress" transform="translate(-102.613)">
    <g id="Group_30" data-name="Group 30" transform="translate(102.613)">
      <path id="Path_13" data-name="Path 13" d="M168.837,108.652a208.039,208.039,0,0,0-3.958-23.761c-4.92-21.949-11.549-35.476-16.343-43.05V35.159l5.494-23.808a1.726,1.726,0,0,0,.01-.728h0L152.2,1.391A1.731,1.731,0,0,0,150.5,0H144.96a1.731,1.731,0,0,0-1.731,1.731v8.845a17.346,17.346,0,0,0-7.426,6.113c-.017.024-.072.024-.074.024s-.058,0-.074-.024a17.343,17.343,0,0,0-7.425-6.113V1.731A1.731,1.731,0,0,0,126.5,0H120.96a1.731,1.731,0,0,0-1.7,1.391l-1.846,9.231h0a1.726,1.726,0,0,0,.009.728l5.494,23.808v6.683c-4.794,7.574-11.423,21.1-16.343,43.05a208.058,208.058,0,0,0-3.958,23.761,1.731,1.731,0,0,0,1.724,1.887h62.77a1.73,1.73,0,0,0,1.724-1.887ZM146.69,3.461h2.389l1.13,5.651a19.041,19.041,0,0,0-3.519.383V3.461Zm-24.312,0h2.389V9.5a19,19,0,0,0-3.519-.383Zm-1.116,9.118a14.241,14.241,0,0,1,11.56,6.1,3.573,3.573,0,0,0,5.813,0,14.161,14.161,0,0,1,11.562-6.11l-4.768,20.662h-19.4Zm23.813,24.114v3.923H126.383V36.693Zm-38.8,70.385c.958-8.158,5.541-40.936,19.333-63h2.567l-3.386,22.006a1.731,1.731,0,0,0,1.447,1.974,1.763,1.763,0,0,0,.265.02,1.731,1.731,0,0,0,1.708-1.468l3.467-22.533H134V79.27a1.731,1.731,0,1,0,3.462,0V44.077h2.323l3.466,22.533a1.731,1.731,0,0,0,1.708,1.468,1.761,1.761,0,0,0,.265-.02,1.731,1.731,0,0,0,1.447-1.974l-3.385-22.006h2.567c13.783,22.051,18.373,54.84,19.333,63H106.273Z" transform="translate(-102.613)" fill="#fff"/>
    </g>
  </g>
</svg>
