<svg xmlns="http://www.w3.org/2000/svg" width="52.744" height="110.945" viewBox="0 0 52.744 110.945">
  <g id="flare-pants" transform="translate(-111.762)">
    <path id="Path_14" data-name="Path 14" d="M164.485,107.734c-.059-.322-5.878-32.247-6.5-35.85a136.9,136.9,0,0,1-.936-24.758c.04-.585.086-1.222.136-1.9.759-10.476,2.161-29.881-3.619-40.546V1.3a1.3,1.3,0,0,0-1.3-1.3H124.007a1.3,1.3,0,0,0-1.3,1.3V4.675c-5.781,10.665-4.379,30.07-3.62,40.547.05.682.1,1.319.136,1.9a136.9,136.9,0,0,1-.936,24.758c-.626,3.6-6.445,35.527-6.5,35.85a1.3,1.3,0,0,0,.75,1.422c.164.073,4.094,1.788,11.9,1.788,7.769,0,12.3-1.688,12.493-1.76a1.3,1.3,0,0,0,.839-1.275c-.015-.336-1.506-33.742-1.663-44.389-.091-6.21,1.059-17.673,2.03-26.126.971,8.453,2.122,19.915,2.03,26.126-.157,10.647-1.647,44.053-1.663,44.389a1.3,1.3,0,0,0,.839,1.275c.189.072,4.725,1.76,12.494,1.76,7.807,0,11.738-1.715,11.9-1.788A1.3,1.3,0,0,0,164.485,107.734ZM150.958,3.687H139.435V2.6h11.523ZM136.831,2.6V3.687H125.309V2.6ZM133.5,63.558c.142,9.639,1.37,37.8,1.62,43.469a39.945,39.945,0,0,1-10.686,1.314,34.564,34.564,0,0,1-9.89-1.233c1.033-5.671,5.746-31.547,6.308-34.777a140.317,140.317,0,0,0,.968-25.383c-.041-.588-.087-1.228-.137-1.914C121,35.668,119.608,16.4,124.79,6.291h3.9l-.888,5.964a1.3,1.3,0,0,0,1.1,1.479,1.32,1.32,0,0,0,.193.015,1.3,1.3,0,0,0,1.286-1.111l.945-6.347h5.51V26.64C136.574,28.571,133.344,53,133.5,63.558Zm18.334,44.782a39.955,39.955,0,0,1-10.687-1.313c.25-5.669,1.479-33.83,1.62-43.469.155-10.558-3.074-34.988-3.332-36.918V6.291h5.51l.945,6.347a1.3,1.3,0,0,0,1.286,1.111,1.32,1.32,0,0,0,.193-.015,1.3,1.3,0,0,0,1.1-1.479l-.887-5.964h3.9c5.182,10.109,3.785,29.377,3.106,38.743-.05.686-.1,1.326-.137,1.914a140.288,140.288,0,0,0,.968,25.383c.562,3.231,5.275,29.106,6.308,34.777A34.542,34.542,0,0,1,151.834,108.341Z" transform="translate(0)" fill="#fff"/>
  </g>
</svg>
