<svg xmlns="http://www.w3.org/2000/svg" width="95.699" height="110.539" viewBox="0 0 95.699 110.539">
  <g id="shirt_1_" data-name="shirt (1)" transform="translate(-34.37)">
    <g id="Group_15" data-name="Group 15" transform="translate(87.883 55.385)">
      <g id="Group_14" data-name="Group 14" transform="translate(0)">
        <path id="Path_5" data-name="Path 5" d="M283.973,256.534h-.019a1.74,1.74,0,1,0,.019,0Z" transform="translate(-282.233 -256.534)" fill="#fff"/>
      </g>
    </g>
    <g id="Group_17" data-name="Group 17" transform="translate(87.901 81.231)">
      <g id="Group_16" data-name="Group 16" transform="translate(0)">
        <path id="Path_6" data-name="Path 6" d="M284.058,376.251h-.019a1.74,1.74,0,1,0,.019,0Z" transform="translate(-282.318 -376.251)" fill="#fff"/>
      </g>
    </g>
    <g id="Group_19" data-name="Group 19" transform="translate(87.883 42.462)">
      <g id="Group_18" data-name="Group 18" transform="translate(0)">
        <path id="Path_7" data-name="Path 7" d="M283.973,196.676h-.019a1.74,1.74,0,1,0,.019,0Z" transform="translate(-282.233 -196.676)" fill="#fff"/>
      </g>
    </g>
    <g id="Group_21" data-name="Group 21" transform="translate(87.883 68.308)">
      <g id="Group_20" data-name="Group 20" transform="translate(0)">
        <path id="Path_8" data-name="Path 8" d="M283.973,316.393h-.019a1.74,1.74,0,1,0,.019,0Z" transform="translate(-282.233 -316.393)" fill="#fff"/>
      </g>
    </g>
    <g id="Group_23" data-name="Group 23" transform="translate(34.37)">
      <g id="Group_22" data-name="Group 22">
        <path id="Path_9" data-name="Path 9" d="M130.067,83.445l-1.606-59.41a12.891,12.891,0,0,0-8.5-11.716L101.8,5.832,98.429.771A1.707,1.707,0,0,0,96.989,0V0H67.45V0a1.707,1.707,0,0,0-1.44.769L62.636,5.832,44.472,12.319a12.89,12.89,0,0,0-8.5,11.716l-1.606,59.41a3.577,3.577,0,0,0,2.218,3.4l-.328,5.742a3.564,3.564,0,0,0,2.3,3.547l10.552,4.021a3.579,3.579,0,0,0,2.649,3.3l26.322,7.019a1.731,1.731,0,0,0,2.162-1.444L82.22,94.212,84.2,109.037a1.731,1.731,0,0,0,2.162,1.444l26.323-7.02a3.58,3.58,0,0,0,2.649-3.3l10.55-4.02a3.563,3.563,0,0,0,2.3-3.547l-.328-5.742A3.577,3.577,0,0,0,130.067,83.445ZM98.621,7.3l-7.54,12.063a.108.108,0,0,1-.078.053.106.106,0,0,1-.091-.024l-6-4.8L96.643,4.333ZM67.8,4.333,79.523,14.594l-6,4.8a.106.106,0,0,1-.091.024.108.108,0,0,1-.078-.053L65.818,7.3ZM49.1,96.452,39.791,92.9a.115.115,0,0,1-.074-.114l.266-4.662L49.1,91.548ZM80.489,81h0l-3.417,25.626-24.42-6.512a.116.116,0,0,1-.086-.111V33.115a1.731,1.731,0,0,0-3.462,0V87.85l-11.2-4.2a.115.115,0,0,1-.075-.111l1.606-59.41a9.407,9.407,0,0,1,6.2-8.549L63.028,9.368,70.422,21.2a3.577,3.577,0,0,0,5.268.9l4.8-3.839V81ZM82.22,12.354,72.057,3.461H92.383ZM124.647,92.9l-9.307,3.547,0-4.906,9.11-3.417.266,4.662A.115.115,0,0,1,124.647,92.9Zm1.885-9.253-11.184,4.2.054-54.728a1.731,1.731,0,0,0-1.729-1.732h0a1.731,1.731,0,0,0-1.731,1.729L111.875,100a.115.115,0,0,1-.086.111l-24.422,6.513L83.951,81V18.255l4.8,3.839a3.577,3.577,0,0,0,5.268-.9l7.393-11.83L118.8,15.579a9.406,9.406,0,0,1,6.2,8.549l1.606,59.41A.116.116,0,0,1,126.532,83.65Z" transform="translate(-34.37)" fill="#fff"/>
      </g>
    </g>
    <g id="Group_25" data-name="Group 25" transform="translate(56.489 31.385)">
      <g id="Group_24" data-name="Group 24">
        <path id="Path_10" data-name="Path 10" d="M153.321,145.37H138.552a1.731,1.731,0,0,0-1.731,1.731v12.923a5.429,5.429,0,0,0,5.423,5.423h7.385a5.429,5.429,0,0,0,5.423-5.423V147.1A1.731,1.731,0,0,0,153.321,145.37Zm-1.731,14.654a1.964,1.964,0,0,1-1.962,1.962h-7.384a1.964,1.964,0,0,1-1.962-1.962v-4.177a5.389,5.389,0,0,0,1.962.369h7.385a5.39,5.39,0,0,0,1.962-.369v4.177Zm0-9.231a1.964,1.964,0,0,1-1.962,1.962h-7.384a1.964,1.964,0,0,1-1.962-1.962v-1.962H151.59Z" transform="translate(-136.821 -145.37)" fill="#fff"/>
      </g>
    </g>
    <g id="Group_27" data-name="Group 27" transform="translate(87.873 29.538)">
      <g id="Group_26" data-name="Group 26">
        <circle id="Ellipse_2" data-name="Ellipse 2" cx="1.731" cy="1.731" r="1.731" fill="#fff"/>
      </g>
    </g>
  </g>
</svg>
