<svg xmlns="http://www.w3.org/2000/svg" width="117" height="110.945" viewBox="0 0 117 110.945">
  <path id="shirt_2_" data-name="shirt (2)" d="M116.532,49.424c-1.272-2.533-12.6-24.86-18.53-28.854C92.3,16.728,78.322,10.8,77.73,10.552l-.682-.288-.729.138c-.118.022-11.874,2.242-17.819,2.242S40.8,10.425,40.681,10.4l-.729-.138-.682.288C38.678,10.8,24.7,16.728,19,20.57,13.068,24.564,1.74,46.891.468,49.424L0,50.355l.364.975c.153.408,3.93,10.031,20.576,12.228l1.443.191L27.5,56.706c2.3,13.02-.981,43.679-5.042,58.438l-.584,2.122,2.082.765c.353.13,8.937,3.177,34.548,3.177s34.2-3.047,34.548-3.177l2.082-.765-.584-2.122c-4.061-14.759-7.341-45.418-5.042-58.438l5.112,7.042,1.443-.191c16.646-2.2,20.424-11.819,20.576-12.228l.365-.975ZM71.864,16.052A17,17,0,0,1,58.5,21.935a17.006,17.006,0,0,1-13.365-5.883,99.219,99.219,0,0,0,13.365,1.4A99.247,99.247,0,0,0,71.864,16.052ZM109.2,53.279c-2.089,1.847-5.894,4.2-12.358,5.3L88.258,46.746l-1.811,3.509C84.7,53.637,82.933,61.79,84.429,81.419a220.258,220.258,0,0,0,4.827,32.659c-3.741.836-12.9,2.32-30.756,2.32-16.251,0-26.236-1.3-30.759-2.307a220.173,220.173,0,0,0,4.83-32.672c1.5-19.629-.271-27.782-2.017-31.164l-1.812-3.509-8.587,11.83c-9.85-1.657-13.616-6.182-14.793-8.088,4.7-9.217,12.829-23.556,16.366-25.939,4.073-2.743,13.239-6.866,17.365-8.672a22.847,22.847,0,0,0,3.341,4.352A21.89,21.89,0,0,0,58.5,26.746a21.889,21.889,0,0,0,16.065-6.517,22.843,22.843,0,0,0,3.341-4.352c4.126,1.805,13.292,5.928,17.365,8.672,3.535,2.381,11.664,16.714,16.363,25.932A13.115,13.115,0,0,1,109.2,53.279Z" transform="translate(0 -10.264)" fill="#fff"/>
</svg>
