<svg xmlns="http://www.w3.org/2000/svg" width="56.352" height="48.054" viewBox="0 0 56.352 48.054">
  <g id="shop" transform="translate(-1554.648 -31)">
    <g id="shopping-cart_1_" data-name="shopping-cart (1)" transform="translate(1554.648 19.509)">
      <g id="Group_8" data-name="Group 8" transform="translate(0 21.334)">
        <g id="Group_7" data-name="Group 7">
          <path id="Path_2" data-name="Path 2" d="M41.511,26.892a.9.9,0,0,0-.695-.347h-33l-.868-4.516c0-.347-.521-.695-.868-.695H.868a.868.868,0,1,0,0,1.737H5.384l4.168,21.19a6.12,6.12,0,0,0,5.905,4.863H35.432a.868.868,0,0,0,0-1.737h-19.8a4,4,0,0,1-3.474-1.911L37.516,42a.747.747,0,0,0,.695-.695l3.474-13.9A.858.858,0,0,0,41.511,26.892ZM36.648,40.44,11.29,43.74,8.163,28.108H39.6Z" transform="translate(0 -21.334)"/>
        </g>
      </g>
      <g id="Group_10" data-name="Group 10" transform="translate(10.421 50.861)">
        <g id="Group_9" data-name="Group 9" transform="translate(0 0)">
          <path id="Path_3" data-name="Path 3" d="M132.342,384a4.342,4.342,0,1,0,4.342,4.342A4.3,4.3,0,0,0,132.342,384Zm0,6.947a2.605,2.605,0,1,1,2.605-2.605A2.671,2.671,0,0,1,132.342,390.947Z" transform="translate(-128 -384)"/>
        </g>
      </g>
      <g id="Group_12" data-name="Group 12" transform="translate(27.79 50.861)">
        <g id="Group_11" data-name="Group 11" transform="translate(0 0)">
          <path id="Path_4" data-name="Path 4" d="M345.676,384a4.342,4.342,0,1,0,4.342,4.342A4.3,4.3,0,0,0,345.676,384Zm0,6.947a2.605,2.605,0,1,1,2.605-2.605A2.671,2.671,0,0,1,345.676,390.947Z" transform="translate(-341.334 -384)"/>
        </g>
      </g>
    </g>
    <circle id="Ellipse_1" data-name="Ellipse 1" cx="14" cy="14" r="14" transform="translate(1583 33)" fill="red"/>
    <text id="_2" data-name="2" transform="translate(1592 53)" fill="#fff" font-size="20" font-family="NirmalaUI, Nirmala UI" letter-spacing="0.851em"><tspan x="0" y="0">2</tspan></text>
  </g>
</svg>
