<svg xmlns="http://www.w3.org/2000/svg" width="74.612" height="110.539" viewBox="0 0 74.612 110.539">
  <path id="skirt_1_" data-name="skirt (1)" d="M152.611,101.858s-.064-.974-.18-2.714c-.256-3.839-3.129-29.551-6.185-53.984-.413-3.3-.754-6.609-1.085-9.809C143.547,19.723,142.153,6.225,133.615.4l-.587-.4H97.592L97,.4C88.467,6.225,87.074,19.723,85.46,35.352c-.33,3.2-.672,6.509-1.085,9.808-3.056,24.429-5.93,50.142-6.186,53.984-.116,1.739-.18,2.713-.18,2.713l0,.151a2.64,2.64,0,0,0,.809,1.893c1.076,1.055,3.138,1.594,11,1.506a2.7,2.7,0,0,0,.672,1.068c1,.981,2.851,1.516,9.425,1.516q.742,0,1.568-.009c.265.768.984,1.539,2.694,1.9a24.4,24.4,0,0,0,2.931.38c2.176.179,5.092.278,8.21.278s6.033-.1,8.21-.278a24.394,24.394,0,0,0,2.931-.38c1.71-.362,2.43-1.133,2.694-1.9q.825.009,1.568.009c6.573,0,8.425-.534,9.425-1.516a2.7,2.7,0,0,0,.672-1.068q.825.009,1.568.009c6.574,0,8.427-.534,9.427-1.516a2.639,2.639,0,0,0,.809-1.893ZM140.634,100.8l-5.528-64.73-4.589.392,5.695,66.687a56.4,56.4,0,0,1-7.13.226L125.85,42.728l-4.6.245,3.334,62.569a113.634,113.634,0,0,1-18.551,0l3.334-62.569-4.6-.245-3.232,60.646a56.436,56.436,0,0,1-7.129-.226L100.1,36.461l-4.589-.392L89.986,100.8a56.482,56.482,0,0,1-7.276-.229c.022-.327.047-.7.075-1.119.253-3.789,3.113-29.363,6.16-53.719.419-3.349.763-6.683,1.1-9.907C91.5,21.737,92.757,9.517,99.052,4.606h32.516c6.295,4.911,7.556,17.131,9.011,31.219.333,3.224.677,6.558,1.1,9.907,3.047,24.36,5.908,49.932,6.16,53.719.028.418.053.792.075,1.119A56.441,56.441,0,0,1,140.634,100.8Z" transform="translate(-78.004)" fill="#fff"/>
</svg>
