<svg xmlns="http://www.w3.org/2000/svg" width="64.079" height="110.539" viewBox="0 0 64.079 110.539">
  <g id="tank-top" transform="translate(-83.114 0)">
    <g id="Group_29" data-name="Group 29" transform="translate(83.114 0)">
      <path id="Path_11" data-name="Path 11" d="M147.192,98.7l-2.455-60.6a1.4,1.4,0,0,0-1.19-1.326,6.814,6.814,0,0,1-3.771-2.976c-2.65-3.794-5.015-12.169-1.231-30.521a1.4,1.4,0,0,0-.977-1.624l-5.48-1.6a1.395,1.395,0,0,0-1.7.855h0c-.43,1.158-5.888,3.225-15.233,3.225S100.351,2.069,99.92.911h0a1.395,1.395,0,0,0-1.7-.855l-5.48,1.6a1.4,1.4,0,0,0-.977,1.624c3.746,18.167,1.454,26.543-1.128,30.371-1.839,2.726-3.812,3.114-3.874,3.126A1.4,1.4,0,0,0,85.57,38.1L83.115,98.7c0,.019,0,.038,0,.056,0,7.652,16.5,11.78,32.033,11.78h.012c15.529,0,32.033-4.129,32.033-11.78C147.193,98.741,147.193,98.722,147.192,98.7ZM115.154,6.931c5.44,0,11.183-.73,14.685-2.307-1.677,10.637-6.4,29.738-14.685,29.738s-13.008-19.1-14.685-29.738C103.971,6.2,109.714,6.931,115.154,6.931Zm21.221,97.847c-5.646,1.913-13.179,2.967-21.214,2.967h-.012c-8.035,0-15.569-1.054-21.214-2.967-5-1.7-8-3.935-8.024-5.994L88.323,39.2a10.27,10.27,0,0,0,4.5-3.8c2.9-4.151,5.542-12.961,1.932-31.422l2.686-.784a114.571,114.571,0,0,0,3.4,15.784c3.315,11.094,7.657,17.154,12.918,18.056V56.251a1.4,1.4,0,1,0,2.795,0V54.164c.008.008.014.019.022.027a1.4,1.4,0,1,0,0-1.976c-.008.008-.014.019-.022.028V49.8c.008.009.014.019.022.028a1.415,1.415,0,0,0,.989.408,1.4,1.4,0,0,0,0-2.795,1.416,1.416,0,0,0-.989.408c-.008.008-.014.019-.022.027V45.427c.009.009.016.021.025.03a1.4,1.4,0,1,0,0-1.976c-.009.009-.016.021-.025.03V41.058c.009.01.016.021.025.03a1.4,1.4,0,1,0,0-1.976c-.009.009-.016.021-.025.03V37.035c5.261-.9,9.6-6.961,12.918-18.056a114.573,114.573,0,0,0,3.4-15.784l2.686.784c-3.611,18.461-.968,27.271,1.931,31.421a10.269,10.269,0,0,0,4.5,3.8L144.4,98.784C144.374,100.843,141.379,103.082,136.374,104.778Z" transform="translate(-83.114 0)" fill="#fff"/>
      <g id="Group_28" data-name="Group 28" transform="translate(40.611 39.601)">
        <path id="Path_12" data-name="Path 12" d="M234.484,154.675a1.4,1.4,0,0,1-.776-.236l-4.673-3.124a1.4,1.4,0,0,1-.621-1.162v-7.07a1.4,1.4,0,0,1,1.4-1.4h9.347a1.4,1.4,0,0,1,1.4,1.4v7.07a1.4,1.4,0,0,1-.621,1.162l-4.673,3.124A1.4,1.4,0,0,1,234.484,154.675Zm-3.276-5.268,3.276,2.19,3.276-2.19v-4.926h-6.552v4.926Z" transform="translate(-228.413 -141.686)" fill="#fff"/>
      </g>
    </g>
  </g>
</svg>
